<svg width="310" height="84" viewBox="0 0 310 84" fill="none" xmlns="http://www.w3.org/2000/svg">
<ellipse cx="39.5264" cy="41.9999" rx="39.5264" ry="39.4872" fill="url(#paint0_linear_401_2)"/>
<path d="M34.9225 58.6668V23.1283H43.3727V58.6668H34.9225ZM20.944 44.8462V36.9488H57.3512V44.8462H20.944Z" fill="white"/>
<path d="M104.07 56.3076V28.6666H117.574C121.049 28.6666 123.655 29.3247 125.393 30.6409C127.157 31.9572 128.039 33.6946 128.039 35.8532C128.039 37.3011 127.683 38.5647 126.972 39.644C126.262 40.697 125.288 41.5131 124.05 42.0922C122.813 42.6714 121.392 42.9609 119.786 42.9609L120.536 41.342C122.273 41.342 123.813 41.6315 125.156 42.2107C126.499 42.7635 127.538 43.5927 128.275 44.6984C129.039 45.804 129.421 47.1597 129.421 48.7656C129.421 51.1348 128.486 52.9907 126.617 54.3333C124.748 55.6495 121.997 56.3076 118.364 56.3076H104.07ZM110.427 51.4902H117.89C119.549 51.4902 120.799 51.2269 121.642 50.7004C122.51 50.1476 122.945 49.2789 122.945 48.0943C122.945 46.936 122.51 46.0804 121.642 45.5276C120.799 44.9485 119.549 44.6589 117.89 44.6589H109.953V39.9994H116.785C118.338 39.9994 119.522 39.7361 120.339 39.2097C121.181 38.6568 121.602 37.8276 121.602 36.722C121.602 35.6426 121.181 34.8397 120.339 34.3132C119.522 33.7604 118.338 33.484 116.785 33.484H110.427V51.4902ZM144.372 56.6235C141.95 56.6235 139.818 56.1497 137.975 55.202C136.159 54.2543 134.751 52.9644 133.75 51.3322C132.75 49.6738 132.25 47.7915 132.25 45.6856C132.25 43.5532 132.737 41.671 133.711 40.0389C134.711 38.3804 136.067 37.0905 137.778 36.1691C139.489 35.2214 141.424 34.7476 143.583 34.7476C145.662 34.7476 147.531 35.1951 149.19 36.0902C150.875 36.9589 152.204 38.2225 153.178 39.8809C154.152 41.5131 154.639 43.4743 154.639 45.7645C154.639 46.0015 154.626 46.2779 154.6 46.5938C154.573 46.8833 154.547 47.1597 154.521 47.423H137.265V43.8297H151.283L148.913 44.8958C148.913 43.7902 148.69 42.8293 148.242 42.0132C147.795 41.1972 147.176 40.5654 146.386 40.1179C145.596 39.644 144.675 39.4071 143.622 39.4071C142.569 39.4071 141.635 39.644 140.819 40.1179C140.029 40.5654 139.41 41.2103 138.963 42.0527C138.515 42.8688 138.291 43.8428 138.291 44.9748V45.9225C138.291 47.0808 138.541 48.1074 139.042 49.0025C139.568 49.8712 140.292 50.5425 141.213 51.0163C142.161 51.4639 143.267 51.6876 144.53 51.6876C145.662 51.6876 146.649 51.5165 147.492 51.1743C148.361 50.8321 149.15 50.3187 149.861 49.6343L153.139 53.1881C152.165 54.2938 150.94 55.1493 149.466 55.7548C147.992 56.3339 146.294 56.6235 144.372 56.6235ZM165.887 56.6235C164.071 56.6235 162.32 56.4129 160.636 55.9917C158.977 55.5442 157.661 54.9914 156.687 54.3333L158.74 49.9107C159.714 50.5162 160.859 51.0163 162.176 51.4112C163.518 51.7797 164.834 51.964 166.124 51.964C167.546 51.964 168.546 51.7929 169.125 51.4507C169.731 51.1085 170.033 50.6346 170.033 50.0291C170.033 49.529 169.797 49.1604 169.323 48.9235C168.875 48.6603 168.27 48.4628 167.506 48.3312C166.743 48.1996 165.9 48.068 164.979 47.9363C164.084 47.8047 163.176 47.6336 162.255 47.423C161.333 47.1861 160.491 46.8438 159.727 46.3963C158.964 45.9488 158.345 45.3433 157.871 44.5799C157.424 43.8165 157.2 42.8293 157.2 41.6184C157.2 40.2758 157.582 39.0912 158.345 38.0645C159.135 37.0379 160.267 36.2349 161.741 35.6558C163.215 35.0503 164.979 34.7476 167.032 34.7476C168.48 34.7476 169.955 34.9055 171.455 35.2214C172.956 35.5373 174.206 35.998 175.206 36.6035L173.153 40.9866C172.126 40.3811 171.086 39.9731 170.033 39.7625C169.007 39.5256 168.006 39.4071 167.032 39.4071C165.664 39.4071 164.663 39.5914 164.031 39.9599C163.4 40.3285 163.084 40.8023 163.084 41.3814C163.084 41.9079 163.308 42.3028 163.755 42.5661C164.229 42.8293 164.848 43.0399 165.611 43.1979C166.374 43.3558 167.204 43.5006 168.099 43.6322C169.02 43.7375 169.941 43.9086 170.863 44.1456C171.784 44.3825 172.613 44.7247 173.35 45.1722C174.114 45.5934 174.732 46.1857 175.206 46.9491C175.68 47.6862 175.917 48.6603 175.917 49.8712C175.917 51.1874 175.522 52.3589 174.732 53.3856C173.943 54.3859 172.798 55.1757 171.297 55.7548C169.823 56.3339 168.02 56.6235 165.887 56.6235ZM188.405 56.6235C185.904 56.6235 183.956 55.9917 182.561 54.7281C181.166 53.4382 180.468 51.5297 180.468 49.0025V30.3645H186.628V48.9235C186.628 49.8186 186.865 50.5162 187.339 51.0163C187.813 51.4902 188.458 51.7271 189.274 51.7271C190.248 51.7271 191.077 51.4639 191.761 50.9374L193.42 55.2809C192.788 55.7285 192.025 56.0707 191.13 56.3076C190.261 56.5182 189.353 56.6235 188.405 56.6235ZM177.191 40.2758V35.5373H191.919V40.2758H177.191ZM210.54 56.7815C208.408 56.7815 206.42 56.4392 204.578 55.7548C202.761 55.044 201.182 54.0437 199.839 52.7538C198.497 51.4639 197.444 49.9502 196.68 48.2127C195.943 46.4753 195.575 44.5668 195.575 42.4871C195.575 40.4074 195.943 38.4989 196.68 36.7614C197.444 35.024 198.497 33.5103 199.839 32.2204C201.208 30.9305 202.801 29.9433 204.617 29.2589C206.434 28.5481 208.421 28.1927 210.58 28.1927C212.975 28.1927 215.134 28.6139 217.056 29.4563C219.004 30.2724 220.636 31.4833 221.952 33.0891L217.845 36.8799C216.898 35.8006 215.845 34.9977 214.686 34.4712C213.528 33.9184 212.265 33.642 210.896 33.642C209.606 33.642 208.421 33.8526 207.342 34.2738C206.262 34.6949 205.328 35.3004 204.538 36.0902C203.748 36.8799 203.13 37.8144 202.682 38.8938C202.261 39.9731 202.051 41.1709 202.051 42.4871C202.051 43.8033 202.261 45.0011 202.682 46.0804C203.13 47.1597 203.748 48.0943 204.538 48.884C205.328 49.6738 206.262 50.2792 207.342 50.7004C208.421 51.1216 209.606 51.3322 210.896 51.3322C212.265 51.3322 213.528 51.069 214.686 50.5425C215.845 49.9897 216.898 49.1604 217.845 48.0548L221.952 51.8456C220.636 53.4514 219.004 54.6755 217.056 55.5179C215.134 56.3603 212.962 56.7815 210.54 56.7815ZM225.838 56.3076V27.0081H231.998V56.3076H225.838ZM237.715 56.3076V35.0635H243.875V56.3076H237.715ZM240.795 32.102C239.663 32.102 238.741 31.7729 238.03 31.1148C237.32 30.4567 236.964 29.6406 236.964 28.6666C236.964 27.6925 237.32 26.8765 238.03 26.2184C238.741 25.5602 239.663 25.2312 240.795 25.2312C241.927 25.2312 242.848 25.5471 243.559 26.1789C244.269 26.7843 244.625 27.5741 244.625 28.5481C244.625 29.5748 244.269 30.4303 243.559 31.1148C242.874 31.7729 241.953 32.102 240.795 32.102ZM262.504 34.7476C264.189 34.7476 265.689 35.0898 267.005 35.7743C268.348 36.4324 269.401 37.4591 270.164 38.8543C270.928 40.2232 271.31 41.9869 271.31 44.1456V56.3076H265.15V45.0932C265.15 43.3821 264.768 42.1185 264.004 41.3025C263.267 40.4864 262.214 40.0784 260.845 40.0784C259.871 40.0784 258.99 40.289 258.2 40.7102C257.436 41.105 256.831 41.7237 256.383 42.5661C255.962 43.4085 255.752 44.4878 255.752 45.804V56.3076H249.592V35.0635H255.475V40.9471L254.37 39.1702C255.133 37.7486 256.225 36.6561 257.647 35.8927C259.069 35.1293 260.687 34.7476 262.504 34.7476ZM276.893 56.3076V35.0635H283.053V56.3076H276.893ZM279.973 32.102C278.841 32.102 277.92 31.7729 277.209 31.1148C276.498 30.4567 276.143 29.6406 276.143 28.6666C276.143 27.6925 276.498 26.8765 277.209 26.2184C277.92 25.5602 278.841 25.2312 279.973 25.2312C281.105 25.2312 282.027 25.5471 282.737 26.1789C283.448 26.7843 283.804 27.5741 283.804 28.5481C283.804 29.5748 283.448 30.4303 282.737 31.1148C282.053 31.7729 281.132 32.102 279.973 32.102ZM299.037 56.6235C296.747 56.6235 294.707 56.1628 292.916 55.2415C291.126 54.2938 289.718 52.9907 288.691 51.3322C287.691 49.6738 287.191 47.7915 287.191 45.6856C287.191 43.5532 287.691 41.671 288.691 40.0389C289.718 38.3804 291.126 37.0905 292.916 36.1691C294.707 35.2214 296.747 34.7476 299.037 34.7476C301.275 34.7476 303.223 35.2214 304.881 36.1691C306.54 37.0905 307.764 38.4199 308.553 40.1573L303.775 42.724C303.223 41.7237 302.525 40.9866 301.683 40.5127C300.867 40.0389 299.972 39.802 298.997 39.802C297.945 39.802 296.997 40.0389 296.154 40.5127C295.312 40.9866 294.641 41.6579 294.141 42.5266C293.667 43.3953 293.43 44.4483 293.43 45.6856C293.43 46.9228 293.667 47.9758 294.141 48.8445C294.641 49.7133 295.312 50.3845 296.154 50.8584C296.997 51.3322 297.945 51.5692 298.997 51.5692C299.972 51.5692 300.867 51.3454 301.683 50.8979C302.525 50.424 303.223 49.6738 303.775 48.6471L308.553 51.2533C307.764 52.9644 306.54 54.2938 304.881 55.2415C303.223 56.1628 301.275 56.6235 299.037 56.6235Z" fill="#4E4E4E"/>
<defs>
<linearGradient id="paint0_linear_401_2" x1="39.5264" y1="2.5127" x2="39.5264" y2="81.4871" gradientUnits="userSpaceOnUse">
<stop stop-color="#28ABF7"/>
<stop offset="1" stop-color="#1CFDFD"/>
</linearGradient>
</defs>
</svg>
